<svg id="图层_1" data-name="图层 1" xmlns="http://www.w3.org/2000/svg" viewBox="0 0 105.32 105"><defs><style>.cls-1{fill:#db450d;}</style></defs><title>品牌指南切图</title><path class="cls-1" d="M52.66,0A52.66,52.66,0,0,0,46.8,105h.12l.09,0h0a32.75,32.75,0,0,0,9.33-10.71,19,19,0,0,0,1.7-8.47,12.54,12.54,0,0,0-9.91-12.26,32.57,32.57,0,0,0-10.35-.56L21.48,74.65a12.68,12.68,0,0,1-1.31.07,12.49,12.49,0,0,1-8.4-3.22,20.05,20.05,0,0,1-6-10v0a.31.31,0,0,1,0-.18.28.28,0,0,1,.13-.12h0l20.65-9.42a5,5,0,0,0,2.32-3.48l.61-3.88a7.49,7.49,0,0,1,2.6-4.59l9.07-7.61,0,0a.29.29,0,0,0,.1-.2.27.27,0,0,0-.08-.21h0a20,20,0,0,1-6-16.1l.6-6.84a.27.27,0,0,1,.26-.24.26.26,0,0,1,.26.2v0A32.52,32.52,0,0,0,42.8,21l0,0a.26.26,0,0,0,.47-.14v0A20,20,0,0,1,48.45,9.51l0,0a.27.27,0,0,1,.28-.07.27.27,0,0,1,.17.19v0a12.56,12.56,0,0,0,6.75,8.67A12.58,12.58,0,0,1,62.44,26v0a.28.28,0,0,0,.09.13.28.28,0,0,0,.13.05h0A52.43,52.43,0,0,1,92.16,38.5l0,0a.26.26,0,0,1-.13.46h0l-6.67,1.23h-.05a.26.26,0,0,0,0,.51l.07,0a32.62,32.62,0,0,1,19.46,12.88v0a.26.26,0,0,0,.48-.15v0q0-.41,0-.82A52.66,52.66,0,0,0,52.66,0Z"/></svg>