<?xml version="1.0" standalone="no"?><!DOCTYPE svg PUBLIC "-//W3C//DTD SVG 1.1//EN" "http://www.w3.org/Graphics/SVG/1.1/DTD/svg11.dtd"><svg t="1514454692077" class="icon" style="" viewBox="0 0 1024 1024" version="1.1" xmlns="http://www.w3.org/2000/svg" p-id="1212" xmlns:xlink="http://www.w3.org/1999/xlink" width="200" height="200"><defs><style type="text/css"></style></defs><path d="M709.204 958.058l-5.553-0.043C363.153 952.597 71.052 660.509 65.604 320.187c-0.687-44.281 6.758-84.08 22.15-118.315 36.107-80.439 75.957-126.28 118.43-136.232 27.454-6.469 55.325 2.101 84.942 26.54 29.618 24.397 126.374 109.704 127.56 182.77-1.081 44.843-20.051 64.113-38.374 82.749-10.462 10.659-21.214 21.6-27.309 36.242-6.614 16.057-10.961 30.824-10.67 50.438 1.705 106.782 130.16 235.204 236.962 236.909l2.101 0.021c18.614 0 32.801-4.284 48.336-10.712 14.643-6.072 25.625-16.857 36.233-27.277 18.676-18.365 37.916-37.282 82.736-38.354 73.046 1.155 158.384 97.911 182.822 127.539 24.002 29.171 32.925 57.738 26.519 84.932-9.88 42.399-55.7 82.271-136.211 118.43-32.779 14.724-70.675 22.191-112.627 22.191zM223.863 106.177c-2.662 0-5.263 0.302-7.946 0.936-13.082 3.067-47.961 20.133-89.31 112.221-12.812 28.504-19.01 62.199-18.407 100.177 5.075 317.953 277.998 590.844 595.951 595.909l5.138 0.042c35.856-0.011 67.845-6.22 95.071-18.449 92.16-41.38 109.173-76.229 112.21-89.289 3.244-13.811-2.621-29.535-17.93-48.14-45.591-55.293-109.609-111.389-149.751-112.033-27.164 0.665-36.314 9.683-52.976 26.062-12.354 12.125-27.578 27.091-49.875 36.336-16.682 6.904-37.418 13.956-64.851 13.956l-2.435-0.021c-130.969-2.09-276.916-148.026-279.017-278.84-0.437-28.567 6.802-50.104 13.916-67.399 9.296-22.318 24.21-37.501 36.189-49.709 16.535-16.816 25.584-26.009 26.248-53.162-0.664-39.934-56.76-104.161-112.063-149.721-15.411-12.709-28.535-18.876-40.162-18.876z" fill="" p-id="1213"></path></svg>